<?xml version="1.0" encoding="UTF-8"?>
<svg width="353px" height="73px" viewBox="0 0 353 73" version="1.1" xmlns="http://www.w3.org/2000/svg" xmlns:xlink="http://www.w3.org/1999/xlink">
    <title>Group</title>
    <g id="Page-1" stroke="none" stroke-width="1" fill="none" fill-rule="evenodd">
        <g id="Incomlend-Logo-Colour-FA" transform="translate(-706.000000, -426.000000)">
            <g id="Group" transform="translate(706.596276, 426.881689)">
                <path d="M26.1827244,72.1173111 C18.3967244,71.1593111 10.6107244,67.0863111 6.65672438,62.6543111 C-4.21827562,50.4603111 -1.36827562,32.2273111 12.2867244,20.6083111 C25.2817244,9.55231111 46.4277244,7.55131111 55.4107244,18.3323111 C55.4107244,18.3323111 47.3197244,15.5443111 36.7147244,20.3233111 C26.7817244,24.8013111 8.81372438,40.4933111 14.6837244,59.4203111 C17.5587244,68.6923111 26.1827244,72.1173111 26.1827244,72.1173111" id="Fill-43" fill="#1C2245"></path>
                <path d="M33.9697244,54.9873111 C22.1107244,53.1903111 20.9117244,42.6493111 20.9117244,42.6493111 C20.9117244,42.6493111 12.9037244,64.9623111 36.6047244,69.4823111 C57.5887244,73.4843111 76.5597244,55.9493111 83.6217244,41.3543111 L63.0327244,41.3543111 C56.7247244,52.1703111 43.0537244,56.3643111 33.9697244,54.9873111" id="Fill-44" fill="#777776"></path>
                <path d="M23.9067244,8.74931111 C23.9067244,8.74931111 39.2397244,3.62931111 51.5777244,8.26931111 C60.1377244,11.4893111 67.2607244,20.3903111 66.2507244,31.3453111 L86.6747244,31.3453111 C89.5327244,8.02631111 62.6087244,-12.1576889 23.9067244,8.74931111" id="Fill-46" fill="#AF2534"></path>
                <path d="M99.8417244,32.5753111 L99.8417244,15.1493111 C99.8417244,13.4603111 101.033724,12.5323111 102.490724,12.5323111 C103.915724,12.5323111 105.108724,13.4603111 105.108724,15.1493111 L105.108724,32.5753111 C105.108724,34.1993111 103.915724,35.1923111 102.490724,35.1923111 C101.033724,35.1923111 99.8417244,34.1993111 99.8417244,32.5753111" id="Fill-47" fill="#1C2245"></path>
                <path d="M130.591724,27.5403111 L130.591724,15.1493111 C130.591724,13.4603111 131.817724,12.5323111 133.241724,12.5323111 C134.698724,12.5323111 135.891724,13.4603111 135.891724,15.1493111 L135.891724,31.9793111 C135.891724,34.2323111 134.532724,35.1923111 133.109724,35.1923111 C132.347724,35.1923111 131.618724,34.9283111 131.055724,34.4973111 L114.726724,20.5173111 L114.726724,32.5753111 C114.726724,34.1993111 113.500724,35.1923111 112.043724,35.1923111 C110.618724,35.1923111 109.426724,34.1993111 109.426724,32.5753111 L109.426724,15.2163111 C109.426724,13.5263111 110.354724,12.5323111 111.711724,12.5323111 C112.474724,12.5323111 113.434724,12.8633111 114.395724,13.6913111 L130.591724,27.5403111" id="Fill-48" fill="#1C2245"></path>
                <path d="M143.062724,34.9943111 C141.306724,34.9943111 140.445724,34.1003111 140.445724,32.3103111 L140.445724,15.3813111 C140.445724,13.5923111 141.306724,12.6973111 143.062724,12.6973111 L163.862724,12.6973111 C165.551724,12.6973111 166.511724,13.9243111 166.511724,15.3813111 C166.511724,16.8393111 165.551724,18.0643111 163.862724,18.0643111 L145.711724,18.0643111 L145.711724,29.6603111 L163.862724,29.6603111 C165.551724,29.6603111 166.511724,30.8523111 166.511724,32.3103111 C166.511724,33.8023111 165.551724,34.9943111 163.862724,34.9943111 L143.062724,34.9943111" id="Fill-49" fill="#1C2245"></path>
                <path d="M176.364724,29.6603111 L192.230724,29.6603111 L192.230724,18.0643111 L176.364724,18.0643111 L176.364724,29.6603111 Z M197.530724,32.3103111 C197.530724,34.1003111 196.635724,34.9943111 194.880724,34.9943111 L173.682724,34.9943111 C171.926724,34.9943111 171.065724,34.1003111 171.065724,32.3103111 L171.065724,15.3813111 C171.065724,13.5923111 171.926724,12.6973111 173.682724,12.6973111 L194.880724,12.6973111 C196.635724,12.6973111 197.530724,13.5923111 197.530724,15.3813111 L197.530724,32.3103111 L197.530724,32.3103111 Z" id="Fill-50" fill="#1C2245"></path>
                <path d="M215.116724,27.9373111 L223.066724,14.1883111 C223.695724,13.1283111 224.822724,12.5323111 225.848724,12.5323111 C227.173724,12.5323111 228.332724,13.3603111 228.332724,15.5803111 L228.332724,32.5753111 C228.332724,34.1993111 227.073724,35.1923111 225.716724,35.1923111 C224.225724,35.1923111 223.032724,34.1993111 223.032724,32.5753111 L223.032724,24.3933111 L217.335724,33.7353111 C216.739724,34.6963111 216.011724,35.1923111 215.116724,35.1923111 C214.189724,35.1923111 213.427724,34.6963111 212.864724,33.7353111 L207.200724,24.3933111 L207.200724,32.5753111 C207.200724,34.1993111 205.975724,35.1923111 204.518724,35.1923111 C203.093724,35.1923111 201.901724,34.1993111 201.901724,32.5753111 L201.901724,15.5803111 C201.901724,13.3603111 203.061724,12.5323111 204.352724,12.5323111 C205.411724,12.5323111 206.505724,13.1283111 207.134724,14.1883111 L215.116724,27.9373111" id="Fill-51" fill="#1C2245"></path>
                <path d="M238.268724,15.1493111 L238.268724,29.6603111 L256.419724,29.6603111 C257.976724,29.6603111 258.870724,30.8523111 258.870724,32.3103111 C258.870724,33.8023111 257.976724,34.9943111 256.419724,34.9943111 L235.618724,34.9943111 C233.863724,34.9943111 233.001724,34.1003111 233.001724,32.3103111 L233.001724,15.1493111 C233.001724,13.4603111 234.195724,12.5323111 235.618724,12.5323111 C237.043724,12.5323111 238.268724,13.4603111 238.268724,15.1493111" id="Fill-52" fill="#AF2534"></path>
                <path d="M315.503724,27.5403111 L315.503724,15.1493111 C315.503724,13.4603111 316.733724,12.5323111 318.153724,12.5323111 C319.613724,12.5323111 320.803724,13.4603111 320.803724,15.1493111 L320.803724,31.9793111 C320.803724,34.2323111 319.453724,35.1923111 318.023724,35.1923111 C317.263724,35.1923111 316.533724,34.9283111 315.973724,34.4973111 L299.643724,20.5173111 L299.643724,32.5753111 C299.643724,34.1993111 298.413724,35.1923111 296.963724,35.1923111 C295.533724,35.1923111 294.343724,34.1993111 294.343724,32.5753111 L294.343724,15.2163111 C294.343724,13.5263111 295.273724,12.5323111 296.623724,12.5323111 C297.393724,12.5323111 298.353724,12.8633111 299.313724,13.6913111 L315.503724,27.5403111" id="Fill-53" fill="#AF2534"></path>
                <path d="M346.323724,29.6603111 C345.533724,23.3323111 338.643724,18.0643111 332.383724,18.0643111 L330.463724,18.0643111 L330.463724,29.6603111 L346.323724,29.6603111 Z M348.973724,34.9943111 L325.163724,34.9943111 L325.163724,12.6973111 L330.463724,12.6973111 C341.853724,12.6973111 351.623724,20.5173111 351.623724,32.3103111 C351.623724,34.1003111 350.733724,34.9943111 348.973724,34.9943111 L348.973724,34.9943111 Z" id="Fill-54" fill="#AF2534"></path>
                <path d="M286.454724,21.1793111 L267.056724,21.1793111 C265.366724,21.1793111 264.406724,22.4053111 264.406724,23.8623111 C264.406724,25.3203111 265.366724,26.5133111 267.056724,26.5133111 L286.454724,26.5133111 C288.144724,26.5133111 289.104724,25.3203111 289.104724,23.8623111 C289.104724,22.4053111 288.144724,21.1793111 286.454724,21.1793111" id="Fill-55" fill="#AF2534"></path>
                <path d="M286.852724,29.6603111 L266.658724,29.6603111 C264.969724,29.6603111 264.008724,30.8523111 264.008724,32.3103111 C264.008724,33.8023111 264.969724,34.9943111 266.658724,34.9943111 L286.852724,34.9943111 C288.541724,34.9943111 289.502724,33.8023111 289.502724,32.3103111 C289.502724,30.8523111 288.541724,29.6603111 286.852724,29.6603111" id="Fill-56" fill="#AF2534"></path>
                <path d="M266.757724,18.0643111 L286.753724,18.0643111 C288.442724,18.0643111 289.436724,16.8393111 289.436724,15.3813111 C289.436724,13.9243111 288.442724,12.6973111 286.753724,12.6973111 L266.757724,12.6973111 C265.069724,12.6973111 264.074724,13.9243111 264.074724,15.3813111 C264.074724,16.8393111 265.069724,18.0643111 266.757724,18.0643111" id="Fill-57" fill="#AF2534"></path>
                <path d="M99.8357244,50.9773111 C99.8357244,47.7383111 102.307724,45.3753111 105.640724,45.3753111 C107.330724,45.3753111 108.801724,45.9543111 109.803724,47.0813111 L108.785724,48.0673111 C107.942724,47.1753111 106.908724,46.7683111 105.702724,46.7683111 C103.231724,46.7683111 101.400724,48.5523111 101.400724,50.9773111 C101.400724,53.4033111 103.231724,55.1873111 105.702724,55.1873111 C106.908724,55.1873111 107.942724,54.7653111 108.785724,53.8723111 L109.803724,54.8583111 C108.801724,55.9853111 107.330724,56.5803111 105.625724,56.5803111 C102.307724,56.5803111 99.8357244,54.2173111 99.8357244,50.9773111" id="Fill-58" fill="#777776"></path>
                <path d="M117.981724,52.3083111 C117.981724,50.5393111 116.791724,49.3973111 115.196724,49.3973111 C113.599724,49.3973111 112.395724,50.5393111 112.395724,52.3083111 C112.395724,54.0763111 113.599724,55.2343111 115.196724,55.2343111 C116.791724,55.2343111 117.981724,54.0763111 117.981724,52.3083111 Z M110.876724,52.3083111 C110.876724,49.8363111 112.708724,48.0823111 115.196724,48.0823111 C117.684724,48.0823111 119.499724,49.8363111 119.499724,52.3083111 C119.499724,54.7803111 117.684724,56.5493111 115.196724,56.5493111 C112.708724,56.5493111 110.876724,54.7803111 110.876724,52.3083111 L110.876724,52.3083111 Z" id="Fill-59" fill="#777776"></path>
                <path d="M129.618724,51.6823111 L129.618724,56.4553111 L128.116724,56.4553111 L128.116724,51.8533111 C128.116724,50.2263111 127.303724,49.4293111 125.879724,49.4293111 C124.282724,49.4293111 123.249724,50.3833111 123.249724,52.1833111 L123.249724,56.4553111 L121.747724,56.4553111 L121.747724,48.1613111 L123.188724,48.1613111 L123.188724,49.4123111 C123.797724,48.5673111 124.862724,48.0823111 126.177724,48.0823111 C128.196724,48.0823111 129.618724,49.2413111 129.618724,51.6823111" id="Fill-60" fill="#777776"></path>
                <path d="M140.443724,51.6823111 L140.443724,56.4553111 L138.941724,56.4553111 L138.941724,51.8533111 C138.941724,50.2263111 138.126724,49.4293111 136.703724,49.4293111 C135.107724,49.4293111 134.073724,50.3833111 134.073724,52.1833111 L134.073724,56.4553111 L132.572724,56.4553111 L132.572724,48.1613111 L134.011724,48.1613111 L134.011724,49.4123111 C134.621724,48.5673111 135.686724,48.0823111 137.001724,48.0823111 C139.019724,48.0823111 140.443724,49.2413111 140.443724,51.6823111" id="Fill-61" fill="#777776"></path>
                <path d="M144.176724,51.7283111 L149.497724,51.7283111 C149.341724,50.3363111 148.293724,49.3503111 146.837724,49.3503111 C145.398724,49.3503111 144.333724,50.3203111 144.176724,51.7283111 Z M150.906724,52.8093111 L144.176724,52.8093111 C144.365724,54.2643111 145.538724,55.2343111 147.181724,55.2343111 C148.153724,55.2343111 148.966724,54.9053111 149.575724,54.2323111 L150.406724,55.2023111 C149.655724,56.0793111 148.512724,56.5493111 147.134724,56.5493111 C144.459724,56.5493111 142.674724,54.7803111 142.674724,52.3083111 C142.674724,49.8513111 144.443724,48.0823111 146.837724,48.0823111 C149.231724,48.0823111 150.938724,49.8043111 150.938724,52.3543111 C150.938724,52.4803111 150.922724,52.6683111 150.906724,52.8093111 L150.906724,52.8093111 Z" id="Fill-62" fill="#777776"></path>
                <path d="M152.418724,52.3083111 C152.418724,49.8363111 154.250724,48.0823111 156.801724,48.0823111 C158.286724,48.0823111 159.523724,48.6933111 160.181724,49.8513111 L159.038724,50.5863111 C158.506724,49.7723111 157.692724,49.3973111 156.784724,49.3973111 C155.157724,49.3973111 153.937724,50.5393111 153.937724,52.3083111 C153.937724,54.1073111 155.157724,55.2343111 156.784724,55.2343111 C157.692724,55.2343111 158.506724,54.8583111 159.038724,54.0453111 L160.181724,54.7653111 C159.523724,55.9233111 158.286724,56.5493111 156.801724,56.5493111 C154.250724,56.5493111 152.418724,54.7803111 152.418724,52.3083111" id="Fill-63" fill="#777776"></path>
                <path d="M167.062724,55.9703111 C166.608724,56.3613111 165.919724,56.5493111 165.246724,56.5493111 C163.572724,56.5493111 162.616724,55.6263111 162.616724,53.9513111 L162.616724,49.3973111 L161.208724,49.3973111 L161.208724,48.1613111 L162.616724,48.1613111 L162.616724,46.3463111 L164.119724,46.3463111 L164.119724,48.1613111 L166.497724,48.1613111 L166.497724,49.3973111 L164.119724,49.3973111 L164.119724,53.8893111 C164.119724,54.7803111 164.588724,55.2813111 165.418724,55.2813111 C165.856724,55.2813111 166.280724,55.1413111 166.591724,54.8913111 L167.062724,55.9703111" id="Fill-64" fill="#777776"></path>
                <path d="M169.045724,56.4553111 L170.547724,56.4553111 L170.547724,48.1613111 L169.045724,48.1613111 L169.045724,56.4553111 Z M168.779724,45.5943111 C168.779724,45.0463111 169.218724,44.6083111 169.797724,44.6083111 C170.376724,44.6083111 170.814724,45.0303111 170.814724,45.5633111 C170.814724,46.1263111 170.392724,46.5643111 169.797724,46.5643111 C169.218724,46.5643111 168.779724,46.1423111 168.779724,45.5943111 L168.779724,45.5943111 Z" id="Fill-65" fill="#777776"></path>
                <path d="M181.452724,51.6823111 L181.452724,56.4553111 L179.950724,56.4553111 L179.950724,51.8533111 C179.950724,50.2263111 179.136724,49.4293111 177.712724,49.4293111 C176.116724,49.4293111 175.083724,50.3833111 175.083724,52.1833111 L175.083724,56.4553111 L173.580724,56.4553111 L173.580724,48.1613111 L175.021724,48.1613111 L175.021724,49.4123111 C175.631724,48.5673111 176.696724,48.0823111 178.010724,48.0823111 C180.029724,48.0823111 181.452724,49.2413111 181.452724,51.6823111" id="Fill-66" fill="#777776"></path>
                <path d="M190.915724,52.0893111 C190.915724,50.4773111 189.726724,49.3973111 188.068724,49.3973111 C186.393724,49.3973111 185.203724,50.4773111 185.203724,52.0893111 C185.203724,53.6843111 186.393724,54.7973111 188.068724,54.7973111 C189.726724,54.7973111 190.915724,53.6843111 190.915724,52.0893111 Z M192.387724,48.1613111 L192.387724,55.3283111 C192.387724,58.2553111 190.900724,59.5853111 188.082724,59.5853111 C186.565724,59.5853111 185.031724,59.1623111 184.123724,58.3493111 L184.843724,57.1903111 C185.611724,57.8483111 186.815724,58.2703111 188.035724,58.2703111 C189.991724,58.2703111 190.884724,57.3623111 190.884724,55.4853111 L190.884724,54.8273111 C190.164724,55.6873111 189.084724,56.1103111 187.895724,56.1103111 C185.500724,56.1103111 183.685724,54.4833111 183.685724,52.0893111 C183.685724,49.6953111 185.500724,48.0823111 187.895724,48.0823111 C189.131724,48.0823111 190.258724,48.5363111 190.962724,49.4443111 L190.962724,48.1613111 L192.387724,48.1613111 L192.387724,48.1613111 Z" id="Fill-67" fill="#777776"></path>
                <polyline id="Fill-68" fill="#777776" points="204.208724 52.6683111 204.208724 56.4553111 202.658724 56.4553111 202.658724 52.6373111 198.309724 45.5003111 199.983724 45.5003111 203.488724 51.2743111 207.010724 45.5003111 208.559724 45.5003111 204.208724 52.6683111"></polyline>
                <path d="M215.486724,52.3083111 C215.486724,50.5393111 214.296724,49.3973111 212.700724,49.3973111 C211.105724,49.3973111 209.900724,50.5393111 209.900724,52.3083111 C209.900724,54.0763111 211.105724,55.2343111 212.700724,55.2343111 C214.296724,55.2343111 215.486724,54.0763111 215.486724,52.3083111 Z M208.381724,52.3083111 C208.381724,49.8363111 210.213724,48.0823111 212.700724,48.0823111 C215.189724,48.0823111 217.004724,49.8363111 217.004724,52.3083111 C217.004724,54.7803111 215.189724,56.5493111 212.700724,56.5493111 C210.213724,56.5493111 208.381724,54.7803111 208.381724,52.3083111 L208.381724,52.3083111 Z" id="Fill-69" fill="#777776"></path>
                <path d="M226.983724,48.1613111 L226.983724,56.4553111 L225.559724,56.4553111 L225.559724,55.2023111 C224.948724,56.0633111 223.916724,56.5493111 222.742724,56.5493111 C220.598724,56.5493111 219.175724,55.3753111 219.175724,52.9343111 L219.175724,48.1613111 L220.677724,48.1613111 L220.677724,52.7623111 C220.677724,54.3903111 221.489724,55.2023111 222.914724,55.2023111 C224.479724,55.2023111 225.481724,54.2323111 225.481724,52.4483111 L225.481724,48.1613111 L226.983724,48.1613111" id="Fill-70" fill="#777776"></path>
                <path d="M234.473724,48.0823111 L234.473724,49.5383111 C234.348724,49.5223111 234.239724,49.5223111 234.129724,49.5223111 C232.517724,49.5223111 231.515724,50.5083111 231.515724,52.3233111 L231.515724,56.4553111 L230.013724,56.4553111 L230.013724,48.1613111 L231.453724,48.1613111 L231.453724,49.5533111 C231.986724,48.5833111 233.018724,48.0823111 234.473724,48.0823111" id="Fill-71" fill="#777776"></path>
                <path d="M240.305724,50.9773111 C240.305724,47.7383111 242.777724,45.3753111 246.110724,45.3753111 C247.800724,45.3753111 249.271724,45.9543111 250.272724,47.0813111 L249.255724,48.0673111 C248.410724,47.1753111 247.377724,46.7683111 246.172724,46.7683111 C243.699724,46.7683111 241.869724,48.5523111 241.869724,50.9773111 C241.869724,53.4033111 243.699724,55.1873111 246.172724,55.1873111 C247.377724,55.1873111 248.410724,54.7653111 249.255724,53.8723111 L250.272724,54.8583111 C249.271724,55.9853111 247.800724,56.5803111 246.095724,56.5803111 C242.777724,56.5803111 240.305724,54.2173111 240.305724,50.9773111" id="Fill-72" fill="#777776"></path>
                <path d="M257.418724,53.9193111 L257.418724,52.7623111 L255.102724,52.7623111 C253.614724,52.7623111 253.193724,53.3413111 253.193724,54.0453111 C253.193724,54.8743111 253.881724,55.3913111 255.024724,55.3913111 C256.151724,55.3913111 257.042724,54.8743111 257.418724,53.9193111 Z M258.920724,51.4473111 L258.920724,56.4553111 L257.495724,56.4553111 L257.495724,55.3593111 C256.995724,56.1103111 256.072724,56.5493111 254.774724,56.5493111 C252.895724,56.5493111 251.705724,55.5473111 251.705724,54.1073111 C251.705724,52.7773111 252.567724,51.6823111 255.038724,51.6823111 L257.418724,51.6823111 L257.418724,51.3853111 C257.418724,50.1173111 256.683724,49.3823111 255.196724,49.3823111 C254.209724,49.3823111 253.208724,49.7263111 252.567724,50.2733111 L251.941724,49.1463111 C252.801724,48.4583111 254.037724,48.0823111 255.368724,48.0823111 C257.636724,48.0823111 258.920724,49.1783111 258.920724,51.4473111 L258.920724,51.4473111 Z" id="Fill-73" fill="#777776"></path>
                <path d="M260.824724,55.5793111 L261.450724,54.3903111 C262.155724,54.8913111 263.281724,55.2503111 264.362724,55.2503111 C265.755724,55.2503111 266.333724,54.8273111 266.333724,54.1233111 C266.333724,52.2613111 261.091724,53.8723111 261.091724,50.5713111 C261.091724,49.0843111 262.420724,48.0823111 264.549724,48.0823111 C265.629724,48.0823111 266.850724,48.3643111 267.570724,48.8343111 L266.928724,50.0233111 C266.177724,49.5383111 265.348724,49.3653111 264.533724,49.3653111 C263.219724,49.3653111 262.577724,49.8513111 262.577724,50.5083111 C262.577724,52.4643111 267.835724,50.8683111 267.835724,54.0923111 C267.835724,55.5943111 266.458724,56.5493111 264.252724,56.5493111 C262.874724,56.5493111 261.513724,56.1263111 260.824724,55.5793111" id="Fill-74" fill="#777776"></path>
                <path d="M277.753724,51.6823111 L277.753724,56.4553111 L276.250724,56.4553111 L276.250724,51.8533111 C276.250724,50.2263111 275.437724,49.4293111 274.013724,49.4293111 C272.416724,49.4293111 271.383724,50.3833111 271.383724,52.1833111 L271.383724,56.4553111 L269.881724,56.4553111 L269.881724,44.8433111 L271.383724,44.8433111 L271.383724,49.3353111 C272.010724,48.5363111 273.043724,48.0823111 274.311724,48.0823111 C276.329724,48.0823111 277.753724,49.2413111 277.753724,51.6823111" id="Fill-75" fill="#777776"></path>
                <path d="M282.097724,55.4693111 C282.097724,55.7813111 282.034724,56.0173111 281.831724,56.5963111 L281.096724,58.7713111 L280.110724,58.7713111 L280.689724,56.4393111 C280.297724,56.2993111 280.031724,55.9383111 280.031724,55.4693111 C280.031724,54.8443111 280.485724,54.4053111 281.080724,54.4053111 C281.675724,54.4053111 282.097724,54.8583111 282.097724,55.4693111" id="Fill-76" fill="#777776"></path>
                <path d="M296.613724,50.9153111 L298.113724,50.9153111 L298.113724,55.1873111 C297.023724,56.1103111 295.503724,56.5803111 293.973724,56.5803111 C290.606724,56.5803111 288.133724,54.2173111 288.133724,50.9773111 C288.133724,47.7383111 290.606724,45.3753111 294.003724,45.3753111 C295.743724,45.3753111 297.213724,45.9543111 298.213724,47.0653111 L297.243724,48.0353111 C296.333724,47.1593111 295.303724,46.7683111 294.063724,46.7683111 C291.530724,46.7683111 289.698724,48.5363111 289.698724,50.9773111 C289.698724,53.3883111 291.530724,55.1873111 294.053724,55.1873111 C294.973724,55.1873111 295.833724,54.9843111 296.613724,54.4833111 L296.613724,50.9153111" id="Fill-77" fill="#777776"></path>
                <polygon id="Fill-78" fill="#777776" points="301.053724 56.4553111 302.553724 56.4553111 302.553724 44.8433111 301.053724 44.8433111"></polygon>
                <path d="M311.923724,52.3083111 C311.923724,50.5393111 310.733724,49.3973111 309.143724,49.3973111 C307.543724,49.3973111 306.343724,50.5393111 306.343724,52.3083111 C306.343724,54.0763111 307.543724,55.2343111 309.143724,55.2343111 C310.733724,55.2343111 311.923724,54.0763111 311.923724,52.3083111 Z M304.823724,52.3083111 C304.823724,49.8363111 306.653724,48.0823111 309.143724,48.0823111 C311.633724,48.0823111 313.443724,49.8363111 313.443724,52.3083111 C313.443724,54.7803111 311.633724,56.5493111 309.143724,56.5493111 C306.653724,56.5493111 304.823724,54.7803111 304.823724,52.3083111 L304.823724,52.3083111 Z" id="Fill-79" fill="#777776"></path>
                <path d="M322.763724,52.3083111 C322.763724,50.5393111 321.563724,49.3973111 319.963724,49.3973111 C318.383724,49.3973111 317.183724,50.5393111 317.183724,52.3083111 C317.183724,54.0763111 318.383724,55.2343111 319.963724,55.2343111 C321.563724,55.2343111 322.763724,54.0763111 322.763724,52.3083111 Z M324.283724,52.3083111 C324.283724,54.8443111 322.513724,56.5493111 320.093724,56.5493111 C318.873724,56.5493111 317.803724,56.0793111 317.133724,55.1413111 L317.133724,56.4553111 L315.693724,56.4553111 L315.693724,44.8433111 L317.193724,44.8433111 L317.193724,49.4123111 C317.883724,48.5203111 318.913724,48.0823111 320.093724,48.0823111 C322.513724,48.0823111 324.283724,49.7723111 324.283724,52.3083111 L324.283724,52.3083111 Z" id="Fill-80" fill="#777776"></path>
                <path d="M331.523724,53.9193111 L331.523724,52.7623111 L329.203724,52.7623111 C327.723724,52.7623111 327.303724,53.3413111 327.303724,54.0453111 C327.303724,54.8743111 327.983724,55.3913111 329.133724,55.3913111 C330.253724,55.3913111 331.143724,54.8743111 331.523724,53.9193111 Z M333.023724,51.4473111 L333.023724,56.4553111 L331.603724,56.4553111 L331.603724,55.3593111 C331.103724,56.1103111 330.173724,56.5493111 328.883724,56.5493111 C327.003724,56.5493111 325.813724,55.5473111 325.813724,54.1073111 C325.813724,52.7773111 326.673724,51.6823111 329.143724,51.6823111 L331.523724,51.6823111 L331.523724,51.3853111 C331.523724,50.1173111 330.783724,49.3823111 329.303724,49.3823111 C328.313724,49.3823111 327.313724,49.7263111 326.673724,50.2733111 L326.043724,49.1463111 C326.903724,48.4583111 328.143724,48.0823111 329.473724,48.0823111 C331.743724,48.0823111 333.023724,49.1783111 333.023724,51.4473111 L333.023724,51.4473111 Z" id="Fill-81" fill="#777776"></path>
                <polygon id="Fill-82" fill="#777776" points="335.983724 56.4553111 337.483724 56.4553111 337.483724 44.8433111 335.983724 44.8433111"></polygon>
                <polygon id="Fill-83" fill="#777776" points="340.513724 56.4553111 342.013724 56.4553111 342.013724 44.8433111 340.513724 44.8433111"></polygon>
                <path d="M352.393724,48.1613111 L348.373724,57.2843111 C347.633724,59.0373111 346.673724,59.5853111 345.413724,59.5853111 C344.613724,59.5853111 343.803724,59.3183111 343.283724,58.8183111 L343.923724,57.6913111 C344.333724,58.0833111 344.843724,58.3023111 345.413724,58.3023111 C346.133724,58.3023111 346.583724,57.9733111 346.993724,57.0183111 L347.253724,56.4393111 L343.593724,48.1613111 L345.163724,48.1613111 L348.053724,54.7973111 L350.923724,48.1613111 L352.393724,48.1613111" id="Fill-84" fill="#777776"></path>
            </g>
        </g>
    </g>
</svg>