<?xml version="1.0" encoding="UTF-8" standalone="no"?>
<!-- Created with Inkscape (http://www.inkscape.org/) -->

<svg
   xmlns:dc="http://purl.org/dc/elements/1.1/"
   xmlns:cc="http://creativecommons.org/ns#"
   xmlns:rdf="http://www.w3.org/1999/02/22-rdf-syntax-ns#"
   xmlns:svg="http://www.w3.org/2000/svg"
   xmlns="http://www.w3.org/2000/svg"
   xmlns:sodipodi="http://sodipodi.sourceforge.net/DTD/sodipodi-0.dtd"
   xmlns:inkscape="http://www.inkscape.org/namespaces/inkscape"
   width="151.92294"
   height="33.190651"
   viewBox="0 0 40.196277 8.7816929"
   version="1.1"
   id="svg5581"
   inkscape:version="0.92.0 r15299"
   sodipodi:docname="intertek.svg">
  <defs
     id="defs5575">
    <clipPath
       id="clipPath3332"
       clipPathUnits="userSpaceOnUse">
      <path
         inkscape:connector-curvature="0"
         id="path3330"
         d="M 29.035,19.417 H 147.254 V 61.511 H 29.035 Z" />
    </clipPath>
    <clipPath
       id="clipPath3320"
       clipPathUnits="userSpaceOnUse">
      <path
         inkscape:connector-curvature="0"
         id="path3318"
         d="M 29.512,15.165 H 147.731 V 61.654 H 29.512 Z" />
    </clipPath>
  </defs>
  <sodipodi:namedview
     id="base"
     pagecolor="#ffffff"
     bordercolor="#666666"
     borderopacity="1.0"
     inkscape:pageopacity="0.0"
     inkscape:pageshadow="2"
     inkscape:zoom="5.9434301"
     inkscape:cx="75.461475"
     inkscape:cy="16.095326"
     inkscape:document-units="mm"
     inkscape:current-layer="layer1"
     showgrid="false"
     fit-margin-top="0"
     fit-margin-left="0"
     fit-margin-right="0"
     fit-margin-bottom="0"
     units="px"
     inkscape:window-width="1280"
     inkscape:window-height="744"
     inkscape:window-x="-4"
     inkscape:window-y="-4"
     inkscape:window-maximized="1" />
  <metadata
     id="metadata5578">
    <rdf:RDF>
      <cc:Work
         rdf:about="">
        <dc:format>image/svg+xml</dc:format>
        <dc:type
           rdf:resource="http://purl.org/dc/dcmitype/StillImage" />
        <dc:title></dc:title>
      </cc:Work>
    </rdf:RDF>
  </metadata>
  <g
     inkscape:label="Layer 1"
     inkscape:groupmode="layer"
     id="layer1"
     transform="translate(-87.413593,-173.53053)">
    <g
       id="g5714"
       transform="translate(0.13229085,-0.13228797)">
      <path
         d="m 88.067997,175.18385 c 0.358775,0 0.649817,-0.29104 0.649817,-0.64982 0,-0.35877 -0.291042,-0.64946 -0.649817,-0.64946 -0.358775,0 -0.649464,0.29069 -0.649464,0.64946 0,0.35878 0.290689,0.64982 0.649464,0.64982"
         style="fill:#ffc80a;fill-opacity:1;fill-rule:nonzero;stroke:none;stroke-width:0.35277778"
         id="path3324"
         inkscape:connector-curvature="0" />
      <path
         d="m 88.067997,175.09622 c 0.358775,0 0.649817,-0.29104 0.649817,-0.64982 0,-0.35877 -0.291042,-0.64946 -0.649817,-0.64946 -0.358775,0 -0.649464,0.29069 -0.649464,0.64946 0,0.35878 0.290689,0.64982 0.649464,0.64982"
         style="fill:#ffc80a;fill-opacity:1;fill-rule:nonzero;stroke:none;stroke-width:0.35277778"
         id="path3336"
         inkscape:connector-curvature="0" />
      <path
         d="m 109.86155,175.91488 -7.1e-4,10e-4 v -10e-4 c -0.96943,0 -1.88171,0.43497 -2.5026,1.19309 -0.47907,0.58456 -0.74154,1.31798 -0.73978,2.06411 v 2.48214 c 0,0.38382 0.27058,0.65229 0.65793,0.65229 0.39229,0 0.65582,-0.26247 0.65582,-0.65229 v -2.50966 c 0.003,-0.44168 0.15734,-0.87136 0.43533,-1.21003 0.36759,-0.44908 0.91299,-0.70661 1.49613,-0.70661 v -3.5e-4 h 0.0191 c 0.15734,0 0.31044,-0.0543 0.43074,-0.15276 0.1337,-0.10971 0.21872,-0.26035 0.24024,-0.42368 0.0222,-0.17392 -0.0296,-0.34326 -0.14958,-0.48966 -0.16686,-0.2039 -0.387,-0.24659 -0.54257,-0.24659"
         style="fill:#000000;fill-opacity:1;fill-rule:nonzero;stroke:none;stroke-width:0.35277778"
         id="path3340"
         inkscape:connector-curvature="0" />
      <path
         d="m 92.336996,175.77222 c -1.656644,0 -2.813755,1.10596 -2.813755,2.68958 v 2.14277 l 7.05e-4,0.0176 c -0.0092,0.21625 -0.185914,0.38523 -0.402167,0.38523 -0.212372,0 -0.386291,-0.16404 -0.402166,-0.37183 h -0.0018 v -4.27355 c 0,-0.38382 -0.268464,-0.65193 -0.652286,-0.65193 -0.383822,0 -0.651934,0.26811 -0.651934,0.65193 v 4.24251 c 0,0.94086 0.764117,1.70639 1.703917,1.70639 0.905581,0 1.653822,-0.70768 1.703917,-1.6129 0.0035,-0.0307 0.006,-0.0617 0.006,-0.0935 v -2.06728 c 0,-0.90276 0.606778,-1.50918 1.509536,-1.50918 0.902758,0 1.509183,0.60642 1.509183,1.50918 v 3.11679 c 0,0.38418 0.268464,0.65229 0.652286,0.65229 0.383823,0 0.652286,-0.26811 0.652286,-0.65229 v -3.19228 c 0,-1.58362 -1.157111,-2.68958 -2.813755,-2.68958"
         style="fill:#000000;fill-opacity:1;fill-rule:nonzero;stroke:none;stroke-width:0.35277778"
         id="path3344"
         inkscape:connector-curvature="0" />
      <path
         d="m 99.12437,181.00786 c -0.413456,-0.003 -0.845608,-0.1718 -1.216378,-0.4759 -0.453319,-0.37147 -0.714022,-0.92181 -0.709789,-1.51024 v -1.7974 h 1.313392 c 0.350308,0 0.632883,-0.28187 0.632883,-0.63218 0,-0.35031 -0.284339,-0.63394 -0.634647,-0.63394 l -1.311628,3.5e-4 v -1.50953 c 0,-0.38383 -0.272344,-0.65229 -0.656519,-0.65229 -0.383822,0 -0.652992,0.26846 -0.652992,0.65229 v 4.5727 c 0.0011,0.9779 0.429331,1.89407 1.192742,2.51919 0.599369,0.49106 1.274586,0.73977 2.006247,0.73977 h 0.0078 c 0.383822,0 0.652286,-0.27058 0.652286,-0.65793 0,-0.36759 -0.248355,-0.61418 -0.623358,-0.61489"
         style="fill:#000000;fill-opacity:1;fill-rule:nonzero;stroke:none;stroke-width:0.35277778"
         id="path3348"
         inkscape:connector-curvature="0" />
      <path
         d="m 127.11704,181.11066 -2.51037,-2.51001 1.9103,-1.63654 c 0.13581,-0.12347 0.22648,-0.32879 0.22648,-0.51153 0,-0.38417 -0.26847,-0.65228 -0.65229,-0.65228 -0.18732,0 -0.39264,0.0854 -0.54927,0.22789 l -2.3622,2.02353 v -3.60433 c 0,-0.38382 -0.26811,-0.65228 -0.65229,-0.65228 -0.38382,0 -0.65193,0.26846 -0.65193,0.65228 v 7.21254 c 0,0.38383 0.26811,0.65229 0.65193,0.65229 0.38418,0 0.65229,-0.26846 0.65229,-0.65229 v -1.76635 c 7e-4,-0.0914 0.0388,-0.18204 0.11253,-0.24765 0.13794,-0.12277 0.34396,-0.10513 0.47449,0.0282 l 2.41441,2.41159 c 0.12347,0.13582 0.32879,0.22648 0.51188,0.22648 0.38382,0 0.65229,-0.26811 0.65229,-0.65193 0,-0.18733 -0.0854,-0.39264 -0.22825,-0.54963"
         style="fill:#000000;fill-opacity:1;fill-rule:nonzero;stroke:none;stroke-width:0.35277778"
         id="path3352"
         inkscape:connector-curvature="0" />
      <path
         d="m 114.20805,181.00786 c -0.41346,-0.003 -0.84561,-0.1718 -1.21673,-0.4759 -0.45297,-0.37147 -0.71402,-0.92181 -0.70979,-1.51024 v -1.7974 h 1.31198 c 0.35102,0 0.60607,-0.26635 0.60607,-0.63288 0,-0.36689 -0.25505,-0.63289 -0.60607,-0.63289 h -1.31198 v -1.50953 c 0,-0.38383 -0.27199,-0.65229 -0.65617,-0.65229 -0.38382,0 -0.65299,0.26846 -0.65299,0.65229 v 4.5727 c 0.001,0.9779 0.42933,1.89407 1.19274,2.51919 0.59937,0.49106 1.27459,0.73977 2.00625,0.73977 h 0.008 c 0.38382,0 0.65229,-0.27058 0.65229,-0.65793 0,-0.36759 -0.24836,-0.61418 -0.62336,-0.61489"
         style="fill:#000000;fill-opacity:1;fill-rule:nonzero;stroke:none;stroke-width:0.35277778"
         id="path3356"
         inkscape:connector-curvature="0" />
      <path
         d="m 120.01679,176.54064 c -0.59161,-0.48436 -1.30104,-0.74048 -2.0514,-0.74048 -0.96908,0 -1.88101,0.43497 -2.50261,1.1938 -1.1497,1.4037 -0.95038,3.40395 0.45332,4.55365 0.58561,0.47978 1.32151,0.74401 2.07187,0.74401 0.16086,0 0.32279,-0.012 0.48154,-0.036 0.12029,-0.0183 0.29174,-0.0741 0.42404,-0.23601 0.22401,-0.27375 0.18238,-0.69391 -0.0914,-0.91757 -0.10231,-0.084 -0.23001,-0.12665 -0.37924,-0.12665 -0.0402,0 -0.0822,0.003 -0.12418,0.009 -0.0942,0.0162 -0.19156,0.0222 -0.28928,0.0222 -1.1437,0 -2.00906,-0.87983 -2.00906,-1.96356 0,-1.08339 0.87841,-1.9618 1.96179,-1.9618 0.88265,0 1.62913,0.58314 1.87572,1.38465 l -1.87854,3.5e-4 c -0.32279,0 -0.58455,0.26141 -0.58455,0.5842 0,0.3228 0.25259,0.5835 0.57503,0.5835 h 2.49907 c 0.27058,0 0.49248,-0.11501 0.61701,-0.26705 0.10513,-0.12842 0.15628,-0.28822 0.14817,-0.46214 -0.0459,-0.91652 -0.48225,-1.77836 -1.19733,-2.36432"
         style="fill:#000000;fill-opacity:1;fill-rule:nonzero;stroke:none;stroke-width:0.35277778"
         id="path3360"
         inkscape:connector-curvature="0" />
      <path
         d="m 104.95155,176.54064 c -0.59161,-0.48436 -1.30104,-0.74048 -2.0514,-0.74048 -0.96908,0 -1.88101,0.43497 -2.50261,1.1938 -1.149701,1.4037 -0.950382,3.40395 0.45332,4.55365 0.58561,0.47978 1.32151,0.74401 2.07187,0.74401 0.16086,0 0.32279,-0.012 0.48189,-0.036 0.11994,-0.0183 0.29139,-0.0741 0.42369,-0.23601 0.22436,-0.27375 0.18238,-0.69391 -0.0914,-0.91757 -0.10231,-0.084 -0.23001,-0.12665 -0.37924,-0.12665 -0.0402,0 -0.0822,0.003 -0.12418,0.009 -0.0942,0.0162 -0.19156,0.0222 -0.28928,0.0222 -1.1437,0 -2.00906,-0.87983 -2.00906,-1.96356 0,-1.08339 0.87841,-1.9618 1.96179,-1.9618 0.88265,0 1.62913,0.58314 1.87572,1.38465 l -1.87889,3.5e-4 c -0.32244,0 -0.5842,0.26141 -0.5842,0.5842 0,0.3228 0.25259,0.5835 0.57503,0.5835 h 2.49907 c 0.27058,0 0.49248,-0.11501 0.61701,-0.26705 0.10513,-0.12842 0.15628,-0.28822 0.14817,-0.46214 -0.0459,-0.91652 -0.48225,-1.77836 -1.19733,-2.36432"
         style="fill:#000000;fill-opacity:1;fill-rule:nonzero;stroke:none;stroke-width:0.35277778"
         id="path3364"
         inkscape:connector-curvature="0" />
    </g>
  </g>
</svg>
