<svg id="Layer_1" data-name="Layer 1" xmlns="http://www.w3.org/2000/svg" viewBox="0 0 993.06 404.45"><defs><style>.cls-1{fill:#3b5b81;}.cls-2{fill:#f18f12;}.cls-3{fill:#1d1d1b;}</style></defs><path class="cls-1" d="M100.66,454.67,210.74,298.1,100.66,141.54h17.93L279.12,298.1,118.59,454.67Z" transform="translate(-100.66 -95.88)"/><path class="cls-2" d="M505.11,141.54,395,298.1,505.11,454.67H487.18L326.65,298.1,487.18,141.54Z" transform="translate(-100.66 -95.88)"/><path class="cls-1" d="M145.09,95.88,301.65,206,458.22,95.88v17.93L301.65,274.34,145.09,113.81Z" transform="translate(-100.66 -95.88)"/><path class="cls-2" d="M458.22,500.33,301.65,390.25,145.09,500.33V482.4L301.65,321.87,458.22,482.4Z" transform="translate(-100.66 -95.88)"/><path class="cls-3" d="M706.67,297.48q0,54.07-29.35,82.68t-84.48,28.61h-60.5V190.38h66.93q50.94,0,79.17,28.23T706.67,297.48Zm-26.89.9q0-42.72-21.43-64.39t-63.71-21.66h-36.9V386.81h30.92q45.4,0,68.27-22.33T679.78,298.38Z" transform="translate(-100.66 -95.88)"/><path class="cls-3" d="M848.88,209.94q-36,0-56.84,24t-20.83,65.65q0,42.89,20.09,66.25t57.28,23.38q22.86,0,52.14-8.21v22.25q-22.71,8.52-56,8.52-48.26,0-74.47-29.28T744,299.27q0-33.75,12.62-59.15A90.55,90.55,0,0,1,793.09,201q23.82-13.74,56.09-13.74,34.37,0,60.05,12.55L898.48,221.6Q873.69,209.95,848.88,209.94Z" transform="translate(-100.66 -95.88)"/><path class="cls-3" d="M1093.72,408.77h-28.83l-58.71-96-59.75,96H919.54l72.6-114.13L924.47,190.38h28.08l54.23,86.49,54.67-86.49h27l-67.67,103.37Z" transform="translate(-100.66 -95.88)"/></svg>