<svg xmlns="http://www.w3.org/2000/svg" viewBox="0 0 1894.72 748.51"><defs><style>.cls-1{fill:#fff;}.cls-2{fill:#f18f12;}</style></defs><g id="Layer_2" data-name="Layer 2"><g id="DCX_White" data-name="DCX White"><g id="Main_Logo_llight_white" data-name="Main Logo llight white"><path class="cls-1" d="M0,664,203.72,374.25,0,84.5H33.18L330.27,374.25,33.18,664Z"/><path class="cls-2" d="M748.51,84.5,544.79,374.25,748.51,664H715.33L418.24,374.25,715.33,84.5Z"/><path class="cls-1" d="M82.22,0,372,203.72,661.73,0V33.18L372,330.27,82.22,33.18Z"/><path class="cls-2" d="M661.73,748.51,372,544.79,82.22,748.51V715.33L372,418.24,661.73,715.33Z"/><path class="cls-1" d="M1151.32,350.89q0,100.08-55.57,153T935.68,556.85H822.6V152.67h125q96.48,0,150.12,52T1151.32,350.89Zm-69.67,2.21Q1081.65,208,945.91,208H888.68V501.29h47Q1081.65,501.29,1081.65,353.1Z"/><path class="cls-1" d="M1410.08,203.54q-57,0-89.57,40.36t-32.62,111.42q0,74.37,31.38,112.51T1410.08,506a238.72,238.72,0,0,0,49.77-5.12q24-5.12,50-13.13v56.67q-47.55,18-107.81,18-88.75,0-136.3-53.77t-47.55-153.85q0-63,23.08-110.31T1308.07,172q43.68-25.15,102.57-25.16,61.92,0,114.45,26l-23.78,55a356.4,356.4,0,0,0-43.26-17A156.06,156.06,0,0,0,1410.08,203.54Z"/><path class="cls-1" d="M1894.72,556.85h-76L1717.51,391.53l-102,165.32h-70.77L1678.8,347.3,1553.29,152.67h73.54l93.44,152.88,93.44-152.88H1885L1758.7,348.4Z"/></g></g></g></svg>